<svg width="118" height="16" viewBox="0 0 118 16" fill="none" xmlns="http://www.w3.org/2000/svg">
<path d="M6.93527 10.1985C7.64871 9.59016 8.14093 8.75506 8.27366 7.80934C8.30684 7.60471 8.32344 7.39455 8.32344 7.18439C8.32344 6.89127 8.27366 6.59815 8.18517 6.31057C8.08009 5.9179 7.90865 5.54735 7.68743 5.20999L7.69849 5.22105L8.52806 4.31405L7.05695 2.9646L6.22737 3.87161L6.2329 3.87714C5.64113 3.55637 4.96088 3.3628 4.23638 3.35174C4.22532 3.35174 4.21426 3.35174 4.2032 3.35174C4.19214 3.35174 4.18661 3.35174 4.17554 3.35174C4.17001 3.35174 4.16448 3.35174 4.15895 3.35174C2.00205 3.3628 0 4.70118 0 7.31159C0 9.71737 1.65363 11.2272 4.19767 11.2272C5.59689 11.2272 6.08357 11.8079 6.08357 12.5656C6.08357 13.5224 5.17104 13.998 4.16448 13.998C3.10815 13.998 2.29517 13.6219 2.21221 12.4273H0.11061C0.0608357 14.6782 1.46559 16 4.17001 16C6.29373 16 8.38427 14.8829 8.38427 12.5711C8.38427 12.1508 8.38427 10.9673 6.93527 10.1985ZM2.18456 7.31159C2.18456 6.05063 3.04732 5.35932 4.19767 5.35932C5.31483 5.35932 6.14994 6.22208 6.14994 7.31159C6.14994 8.55596 5.22081 9.16985 4.19767 9.16985C3.05285 9.16431 2.18456 8.44535 2.18456 7.31159Z" fill="white"/>
<path d="M9.80615 7.30042C9.80615 4.73979 11.5538 3.19678 13.8158 3.19678C14.8666 3.19678 15.8012 3.56179 16.2492 4.28076L16.3266 3.37375H18.4725V11.2271H16.4041L16.2769 10.2427C15.7681 11.1331 14.6232 11.4649 13.86 11.4649C11.504 11.4649 9.80615 9.88871 9.80615 7.30042ZM16.2437 7.37785C16.2437 6.24963 15.5137 5.21542 14.1587 5.21542C13.0139 5.21542 12.0903 5.99522 12.0903 7.30042C12.0903 8.60563 13.0139 9.36884 14.1587 9.36884C15.4473 9.36884 16.2437 8.35122 16.2437 7.37785Z" fill="white"/>
<path d="M19.7565 3.37375H21.7586L21.9189 4.26417C22.4278 3.42353 23.285 3.19678 23.9874 3.19678C24.828 3.19678 25.7848 3.52861 26.2936 4.66237C26.996 3.57838 27.726 3.19678 28.8874 3.19678C30.5244 3.19678 32.0177 3.99317 32.0177 6.93541V11.2271H29.7114V6.97965C29.7114 5.97863 29.457 5.34262 28.5169 5.34262C27.6098 5.34262 27.1785 6.12242 27.1785 7.01284V11.2271H24.922V7.01284C24.922 5.97863 24.4132 5.29284 23.4564 5.29284C22.5494 5.29284 22.0406 6.13348 22.0406 7.0239V11.2271H19.751V3.37375H19.7565Z" fill="white"/>
<path d="M35.491 10.2255L35.3472 11.2266H33.2954V0.0936279H35.6016V4.32448C36.2874 3.48384 37.1281 3.19625 38.0682 3.19625C40.3745 3.19625 41.9783 4.75586 41.9783 7.2999C41.9783 9.74992 40.4021 11.4644 38.0959 11.4644C37.0949 11.4644 36.2045 11.2598 35.491 10.2255ZM39.6721 7.2999C39.6721 6.10531 38.9421 5.28126 37.7475 5.28126C36.6801 5.28126 35.6348 5.96704 35.6348 7.2999C35.6348 8.79314 36.7188 9.31854 37.7475 9.31854C38.9697 9.31854 39.6721 8.42813 39.6721 7.2999Z" fill="white"/>
<path d="M43.2563 1.28861C43.2563 0.414789 43.909 0 44.5616 0C45.2142 0 45.8668 0.414789 45.8668 1.28861C45.8668 2.16243 45.2142 2.57722 44.5616 2.57722C43.909 2.57722 43.2563 2.16243 43.2563 1.28861ZM43.4167 3.37362H45.7064V11.227H43.4167V3.37362Z" fill="white"/>
<path d="M47.1455 7.31702C47.1455 4.94995 48.8323 3.19678 51.4372 3.19678C54.0587 3.19678 55.7455 4.94442 55.7455 7.31702C55.7455 9.82787 54.1084 11.4815 51.4372 11.4815C48.766 11.4815 47.1455 9.82787 47.1455 7.31702ZM53.4282 7.31702C53.4282 6.33258 52.8254 5.2486 51.4427 5.2486C50.0933 5.2486 49.4683 6.33258 49.4683 7.31702C49.4683 8.38441 50.0435 9.44627 51.4427 9.44627C52.8419 9.44627 53.4282 8.42865 53.4282 7.31702Z" fill="white"/>
<path d="M65.6602 10V4.3125H67.2656C67.7604 4.3125 68.1979 4.42188 68.5781 4.64062C68.9583 4.85938 69.2513 5.17057 69.457 5.57422C69.6654 5.97786 69.7708 6.44141 69.7734 6.96484V7.32812C69.7734 7.86458 69.6693 8.33464 69.4609 8.73828C69.2552 9.14193 68.9596 9.45182 68.5742 9.66797C68.1914 9.88411 67.7448 9.99479 67.2344 10H65.6602ZM66.4102 4.92969V9.38672H67.1992C67.7773 9.38672 68.2266 9.20703 68.5469 8.84766C68.8698 8.48828 69.0312 7.97656 69.0312 7.3125V6.98047C69.0312 6.33464 68.8789 5.83333 68.5742 5.47656C68.2721 5.11719 67.8424 4.9349 67.2852 4.92969H66.4102Z" fill="#FEC300"/>
<path d="M74.605 7.37109H72.1402V9.38672H75.0034V10H71.3902V4.3125H74.9644V4.92969H72.1402V6.75781H74.605V7.37109Z" fill="#FEC300"/>
<path d="M78.2998 9.00391L79.9248 4.3125H80.7452L78.6358 10H77.9717L75.8663 4.3125H76.6827L78.2998 9.00391Z" fill="#FEC300"/>
<path d="M85.2056 7.37109H82.7408V9.38672H85.6041V10H81.9908V4.3125H85.565V4.92969H82.7408V6.75781H85.2056V7.37109Z" fill="#FEC300"/>
<path d="M87.7716 9.38672H90.4669V10H87.0177V4.3125H87.7716V9.38672Z" fill="#FEC300"/>
<path d="M95.9195 7.33984C95.9195 7.89714 95.8258 8.38411 95.6383 8.80078C95.4508 9.21484 95.1852 9.53125 94.8414 9.75C94.4977 9.96875 94.0966 10.0781 93.6383 10.0781C93.1904 10.0781 92.7932 9.96875 92.4469 9.75C92.1005 9.52865 91.831 9.21484 91.6383 8.80859C91.4482 8.39974 91.3505 7.92708 91.3453 7.39062V6.98047C91.3453 6.43359 91.4404 5.95052 91.6305 5.53125C91.8206 5.11198 92.0888 4.79167 92.4352 4.57031C92.7841 4.34635 93.1826 4.23438 93.6305 4.23438C94.0862 4.23438 94.4872 4.34505 94.8336 4.56641C95.1826 4.78516 95.4508 5.10417 95.6383 5.52344C95.8258 5.9401 95.9195 6.42578 95.9195 6.98047V7.33984ZM95.1734 6.97266C95.1734 6.29818 95.038 5.78125 94.7672 5.42188C94.4964 5.0599 94.1174 4.87891 93.6305 4.87891C93.1565 4.87891 92.7828 5.0599 92.5094 5.42188C92.2385 5.78125 92.0992 6.28125 92.0914 6.92188V7.33984C92.0914 7.99349 92.2281 8.50781 92.5016 8.88281C92.7776 9.25521 93.1565 9.44141 93.6383 9.44141C94.1227 9.44141 94.4977 9.26562 94.7633 8.91406C95.0289 8.5599 95.1656 8.05339 95.1734 7.39453V6.97266Z" fill="#FEC300"/>
<path d="M98.2745 7.77344V10H97.5245V4.3125H99.6222C100.245 4.3125 100.732 4.47135 101.083 4.78906C101.437 5.10677 101.614 5.52734 101.614 6.05078C101.614 6.60286 101.441 7.02865 101.095 7.32812C100.751 7.625 100.258 7.77344 99.6144 7.77344H98.2745ZM98.2745 7.16016H99.6222C100.023 7.16016 100.331 7.06641 100.544 6.87891C100.758 6.6888 100.864 6.41536 100.864 6.05859C100.864 5.72005 100.758 5.44922 100.544 5.24609C100.331 5.04297 100.038 4.9375 99.6652 4.92969H98.2745V7.16016Z" fill="#FEC300"/>
<path d="M106.266 7.37109H103.801V9.38672H106.665V10H103.051V4.3125H106.626V4.92969H103.801V6.75781H106.266V7.37109Z" fill="#FEC300"/>
<path d="M110.164 7.69922H108.828V10H108.074V4.3125H109.957C110.598 4.3125 111.09 4.45833 111.434 4.75C111.78 5.04167 111.953 5.46615 111.953 6.02344C111.953 6.3776 111.857 6.6862 111.664 6.94922C111.474 7.21224 111.208 7.40885 110.867 7.53906L112.203 9.95312V10H111.399L110.164 7.69922ZM108.828 7.08594H109.981C110.353 7.08594 110.649 6.98958 110.867 6.79688C111.089 6.60417 111.199 6.34635 111.199 6.02344C111.199 5.67188 111.094 5.40234 110.883 5.21484C110.675 5.02734 110.373 4.93229 109.977 4.92969H108.828V7.08594Z" fill="#FEC300"/>
<path d="M115.164 7.46484C114.521 7.27995 114.052 7.05339 113.757 6.78516C113.466 6.51432 113.32 6.18099 113.32 5.78516C113.32 5.33724 113.498 4.96745 113.855 4.67578C114.215 4.38151 114.681 4.23438 115.254 4.23438C115.644 4.23438 115.992 4.3099 116.297 4.46094C116.604 4.61198 116.841 4.82031 117.007 5.08594C117.177 5.35156 117.261 5.64193 117.261 5.95703H116.507C116.507 5.61328 116.398 5.34375 116.179 5.14844C115.961 4.95052 115.652 4.85156 115.254 4.85156C114.884 4.85156 114.595 4.93359 114.386 5.09766C114.181 5.25911 114.078 5.48438 114.078 5.77344C114.078 6.00521 114.175 6.20182 114.371 6.36328C114.569 6.52214 114.903 6.66797 115.375 6.80078C115.849 6.93359 116.218 7.08073 116.484 7.24219C116.752 7.40104 116.95 7.58724 117.078 7.80078C117.208 8.01432 117.273 8.26562 117.273 8.55469C117.273 9.01562 117.093 9.38542 116.734 9.66406C116.375 9.9401 115.894 10.0781 115.293 10.0781C114.902 10.0781 114.537 10.0039 114.199 9.85547C113.86 9.70443 113.599 9.4987 113.414 9.23828C113.231 8.97786 113.14 8.68229 113.14 8.35156H113.894C113.894 8.69531 114.021 8.96745 114.273 9.16797C114.528 9.36589 114.868 9.46484 115.293 9.46484C115.688 9.46484 115.992 9.38411 116.203 9.22266C116.414 9.0612 116.519 8.84115 116.519 8.5625C116.519 8.28385 116.422 8.06901 116.226 7.91797C116.031 7.76432 115.677 7.61328 115.164 7.46484Z" fill="#FEC300"/>
</svg>
